<?xml version="1.0" encoding="UTF-8"?>
<!DOCTYPE svg PUBLIC "-//W3C//DTD SVG 1.1//EN" "http://www.w3.org/Graphics/SVG/1.1/DTD/svg11.dtd">
<svg xmlns="http://www.w3.org/2000/svg" version="1.1" width="1920px" height="1920px" style="shape-rendering:geometricPrecision; text-rendering:geometricPrecision; image-rendering:optimizeQuality; fill-rule:evenodd; clip-rule:evenodd" xmlns:xlink="http://www.w3.org/1999/xlink">
<g><path style="opacity:1" fill="#020403" d="M 0.5,0.5 C 639.833,0.5 1279.17,0.5 1918.5,0.5C 1918.5,639.833 1918.5,1279.17 1918.5,1918.5C 1918.5,1279.17 1918.5,639.833 1918.5,0.5C 1279.17,0.5 639.833,0.5 0.5,0.5 Z"/></g>
<g><path style="opacity:1" fill="#080908" d="M 0.5,0.5 C 0.5,0.166667 0.5,-0.166667 0.5,-0.5C 640.167,-0.5 1279.83,-0.5 1919.5,-0.5C 1919.5,639.167 1919.5,1278.83 1919.5,1918.5C 1919.17,1918.5 1918.83,1918.5 1918.5,1918.5C 1918.5,1279.17 1918.5,639.833 1918.5,0.5C 1279.17,0.5 639.833,0.5 0.5,0.5 Z"/></g>
<g><path style="opacity:1" fill="#868686" d="M 1044.5,675.5 C 1207,674.167 1369.67,674.167 1532.5,675.5C 1532.38,676.107 1532.04,676.44 1531.5,676.5C 1369.33,675.5 1207,675.167 1044.5,675.5 Z"/></g>
<g><path style="opacity:1" fill="#fdfdfd" d="M 360.5,911.5 C 359.463,912.93 358.796,914.597 358.5,916.5C 357.596,917.209 357.263,918.209 357.5,919.5C 438.84,918.836 519.84,919.503 600.5,921.5C 594.234,938.965 588.568,956.631 583.5,974.5C 582.076,976.515 581.41,978.848 581.5,981.5C 579.54,986.652 577.874,991.985 576.5,997.5C 575.596,998.209 575.263,999.209 575.5,1000.5C 493.998,1000.17 412.665,1000.5 331.5,1001.5C 326.666,1015.34 321.999,1029.34 317.5,1043.5C 315.39,1047.5 314.057,1051.84 313.5,1056.5C 310.967,1063.43 308.633,1070.43 306.5,1077.5C 304.39,1081.5 303.057,1085.84 302.5,1090.5C 299.27,1098.3 296.603,1106.3 294.5,1114.5C 293.076,1116.51 292.41,1118.85 292.5,1121.5C 285.748,1139.61 279.748,1157.94 274.5,1176.5C 272.796,1179.94 271.462,1183.61 270.5,1187.5C 264.659,1205.86 258.659,1224.19 252.5,1242.5C 233.424,1216.02 215.09,1189.02 197.5,1161.5C 220.809,1088.57 244.476,1015.91 268.5,943.5C 269.924,941.485 270.59,939.152 270.5,936.5C 277.25,914.415 284.25,892.415 291.5,870.5C 293.655,868.383 294.655,865.716 294.5,862.5C 303.317,834.051 312.317,805.717 321.5,777.5C 324.324,773.37 325.991,768.703 326.5,763.5C 326.563,758.873 328.563,755.373 332.5,753C 367.117,727.384 401.45,701.384 435.5,675C 571.501,674.167 707.501,674.333 843.5,675.5C 861.762,702.367 879.762,729.367 897.5,756.5C 880.299,810.652 862.799,864.652 845,918.5C 827,891.833 809,865.167 791,838.5C 791.216,834.488 791.883,830.488 793,826.5C 797.243,814.438 801.077,802.271 804.5,790C 798.147,778.804 791.147,767.971 783.5,757.5C 670.168,756.333 556.835,756.167 443.5,757C 428.383,767.782 413.55,778.949 399,790.5C 385.858,830.76 373.024,871.093 360.5,911.5 Z"/></g>
<g><path style="opacity:1" fill="#fdfdfd" d="M 1044.5,675.5 C 1207,675.167 1369.33,675.5 1531.5,676.5C 1514.03,689.145 1497.03,702.312 1480.5,716C 1488.98,729.309 1497.65,742.476 1506.5,755.5C 1515.49,756.166 1524.66,756.5 1534,756.5C 1543.53,756.498 1552.69,755.832 1561.5,754.5C 1562.53,750.757 1563.87,747.09 1565.5,743.5C 1587.17,742.167 1608.83,742.167 1630.5,743.5C 1629.49,746.188 1628.49,748.854 1627.5,751.5C 1626.26,753.214 1625.59,755.214 1625.5,757.5C 1627.48,757.157 1628.82,757.824 1629.5,759.5C 1627.47,764.884 1625.14,770.218 1622.5,775.5C 1581.51,776.5 1540.51,776.833 1499.5,776.5C 1499.5,777.5 1499.5,778.5 1499.5,779.5C 1498.57,780.568 1498.23,781.901 1498.5,783.5C 1501.5,783.5 1504.5,783.5 1507.5,783.5C 1507.37,785.216 1507.04,786.883 1506.5,788.5C 1505.6,789.209 1505.26,790.209 1505.5,791.5C 1510.5,791.5 1515.5,791.5 1520.5,791.5C 1519.5,795.5 1518.5,799.5 1517.5,803.5C 1511.5,803.5 1505.5,803.5 1499.5,803.5C 1499.92,800.646 1500.92,797.979 1502.5,795.5C 1499.89,794.348 1497.23,794.182 1494.5,795C 1492.54,799.728 1490.87,804.561 1489.5,809.5C 1488.96,809.56 1488.62,809.893 1488.5,810.5C 1509.33,811.828 1530,811.828 1550.5,810.5C 1569.11,809.794 1587.77,810.127 1606.5,811.5C 1602.58,819.934 1599.24,828.6 1596.5,837.5C 1557.83,837.333 1519.17,837.5 1480.5,838C 1473.4,859.124 1466.4,880.291 1459.5,901.5C 1462.8,902.44 1466.14,903.273 1469.5,904C 1467.78,906.943 1466.78,910.11 1466.5,913.5C 1470.5,913.5 1474.5,913.5 1478.5,913.5C 1481.48,913.902 1484.14,914.902 1486.5,916.5C 1484.97,920.437 1483.63,924.437 1482.5,928.5C 1474.59,929.467 1466.59,929.801 1458.5,929.5C 1459.43,925.716 1460.76,922.049 1462.5,918.5C 1459.89,917.348 1457.23,917.182 1454.5,918C 1450.68,919.933 1446.68,921.433 1442.5,922.5C 1437.84,923.057 1433.5,924.39 1429.5,926.5C 1385.84,938.722 1342.51,951.722 1299.5,965.5C 1293.83,966.39 1288.5,968.057 1283.5,970.5C 1265.59,975.811 1247.59,980.811 1229.5,985.5C 1231.47,990.329 1234.14,994.829 1237.5,999C 1300.83,999.5 1364.17,999.667 1427.5,999.5C 1427.14,1002.27 1426.48,1004.93 1425.5,1007.5C 1423.52,1010.8 1422.52,1014.47 1422.5,1018.5C 1425.48,1019.16 1428.65,1019.5 1432,1019.5C 1435.58,1019.48 1438.74,1018.82 1441.5,1017.5C 1442.75,1013.69 1444.08,1009.86 1445.5,1006C 1467.17,1005.17 1488.84,1005.33 1510.5,1006.5C 1509.14,1010.62 1507.47,1014.62 1505.5,1018.5C 1507.17,1019.17 1508.83,1019.83 1510.5,1020.5C 1508.17,1025.81 1505.84,1031.14 1503.5,1036.5C 1502.6,1037.21 1502.26,1038.21 1502.5,1039.5C 1472.81,1038.84 1443.48,1039.51 1414.5,1041.5C 1411.81,1050.94 1408.81,1060.27 1405.5,1069.5C 1404.57,1070.57 1404.23,1071.9 1404.5,1073.5C 1431.85,1072.84 1458.85,1073.51 1485.5,1075.5C 1480.67,1087.88 1476,1100.22 1471.5,1112.5C 1444.83,1112.17 1418.16,1112.5 1391.5,1113.5C 1388.63,1121.45 1385.96,1129.45 1383.5,1137.5C 1381.06,1142.5 1379.39,1147.83 1378.5,1153.5C 1377.11,1155.88 1376.28,1158.54 1376,1161.5C 1340.59,1188.79 1305.09,1215.95 1269.5,1243C 1268.67,1243.69 1268,1243.52 1267.5,1242.5C 1269.37,1237.55 1271.04,1232.55 1272.5,1227.5C 1274.99,1224.37 1276.32,1220.71 1276.5,1216.5C 1281.69,1197.92 1287.69,1179.58 1294.5,1161.5C 1297.28,1155.48 1299.28,1149.15 1300.5,1142.5C 1305.1,1126.37 1310.1,1110.37 1315.5,1094.5C 1317.99,1091.37 1319.32,1087.71 1319.5,1083.5C 1320.4,1082.79 1320.74,1081.79 1320.5,1080.5C 1252.5,1080.5 1184.5,1080.5 1116.5,1080.5C 1108.59,1068.36 1100.42,1056.36 1092,1044.5C 1090.34,1041.44 1090.17,1038.44 1091.5,1035.5C 1093.61,1031.5 1094.94,1027.16 1095.5,1022.5C 1096.9,1016.29 1098.9,1010.29 1101.5,1004.5C 1102.45,1003.08 1102.78,1001.41 1102.5,999.5C 1048.33,999.168 994.331,999.501 940.5,1000.5C 928.349,1037.43 916.349,1074.43 904.5,1111.5C 902.595,1115.22 901.261,1119.22 900.5,1123.5C 898.213,1129.74 896.213,1136.07 894.5,1142.5C 891.724,1148.5 889.724,1154.83 888.5,1161.5C 852.851,1188.97 817.018,1216.3 781,1243.5C 780.333,1242.17 780.333,1240.83 781,1239.5C 792.281,1205.16 803.448,1170.82 814.5,1136.5C 816.655,1134.38 817.655,1131.72 817.5,1128.5C 819.318,1121.72 821.318,1115.05 823.5,1108.5C 826.324,1104.37 827.991,1099.7 828.5,1094.5C 829.964,1088.77 831.631,1083.11 833.5,1077.5C 836.324,1073.37 837.991,1068.7 838.5,1063.5C 840.297,1056.77 842.297,1050.11 844.5,1043.5C 847.324,1039.37 848.991,1034.7 849.5,1029.5C 850.932,1023.21 852.932,1017.21 855.5,1011.5C 857.61,1007.5 858.943,1003.16 859.5,998.5C 861.637,991.422 863.97,984.422 866.5,977.5C 868.61,973.498 869.943,969.165 870.5,964.5C 872.556,957.392 874.89,950.392 877.5,943.5C 879.277,940.495 880.277,937.162 880.5,933.5C 882.997,925.341 885.664,917.341 888.5,909.5C 890.61,905.498 891.943,901.165 892.5,896.5C 893.932,891.33 895.599,886.33 897.5,881.5C 899.943,876.5 901.61,871.166 902.5,865.5C 904.637,858.422 906.97,851.422 909.5,844.5C 911.277,841.495 912.277,838.162 912.5,834.5C 918.253,816.048 924.253,797.714 930.5,779.5C 932.61,775.498 933.943,771.165 934.5,766.5C 935.114,761.106 937.447,756.606 941.5,753C 975.993,727.335 1010.33,701.501 1044.5,675.5 Z"/></g>
<g><path style="opacity:1" fill="#5f6160" d="M 1667.5,716.5 C 1672.31,715.513 1677.31,715.179 1682.5,715.5C 1682.74,716.791 1682.4,717.791 1681.5,718.5C 1677.29,716.564 1672.62,715.897 1667.5,716.5 Z"/></g>
<g><path style="opacity:1" fill="#f4f4f4" d="M 1667.5,716.5 C 1672.62,715.897 1677.29,716.564 1681.5,718.5C 1680.2,721.023 1679.2,723.69 1678.5,726.5C 1673.17,727.833 1667.83,727.833 1662.5,726.5C 1663.69,722.795 1665.35,719.462 1667.5,716.5 Z"/></g>
<g><path style="opacity:1" fill="#e1e2e1" d="M 1690.5,716.5 C 1692.92,716.192 1695.26,716.526 1697.5,717.5C 1695.61,720.618 1694.27,723.951 1693.5,727.5C 1691.26,728.474 1688.92,728.808 1686.5,728.5C 1687.24,724.285 1688.57,720.285 1690.5,716.5 Z"/></g>
<g><path style="opacity:1" fill="#f6f6f6" d="M 1684.5,777.5 C 1676.59,778.467 1668.59,778.801 1660.5,778.5C 1658.17,778.5 1655.83,778.5 1653.5,778.5C 1654.83,773.172 1656.16,767.839 1657.5,762.5C 1652.5,762.5 1647.5,762.5 1642.5,762.5C 1644.68,755.943 1646.68,749.276 1648.5,742.5C 1654.85,742.653 1661.18,742.986 1667.5,743.5C 1666.43,748.033 1664.77,752.366 1662.5,756.5C 1671.81,757.498 1681.14,757.832 1690.5,757.5C 1689.11,764.331 1687.11,770.997 1684.5,777.5 Z"/></g>
<g><path style="opacity:1" fill="#7e7e7e" d="M 1561.5,754.5 C 1552.69,755.832 1543.53,756.498 1534,756.5C 1524.66,756.5 1515.49,756.166 1506.5,755.5C 1524.91,755.82 1543.24,755.486 1561.5,754.5 Z"/></g>
<g><path style="opacity:1" fill="#4c4d4d" d="M 1627.5,751.5 C 1627.71,753.144 1627.38,754.644 1626.5,756C 1627.79,756.49 1629.13,756.657 1630.5,756.5C 1630.74,757.791 1630.4,758.791 1629.5,759.5C 1628.82,757.824 1627.48,757.157 1625.5,757.5C 1625.59,755.214 1626.26,753.214 1627.5,751.5 Z"/></g>
<g><path style="opacity:1" fill="#020403" d="M 1413.5,788.5 C 1413.17,791.167 1412.83,793.833 1412.5,796.5C 1409.27,804.204 1406.6,812.204 1404.5,820.5C 1402.26,825.216 1400.59,830.216 1399.5,835.5C 1396.42,844.303 1393.42,853.136 1390.5,862C 1371.95,867.284 1353.61,873.118 1335.5,879.5C 1327.83,881.057 1320.5,883.391 1313.5,886.5C 1310.66,886.56 1307.99,887.226 1305.5,888.5C 1297.22,890.595 1289.22,893.261 1281.5,896.5C 1277.12,897.679 1272.78,899.013 1268.5,900.5C 1261.83,901.724 1255.5,903.724 1249.5,906.5C 1244.03,907.768 1238.7,909.435 1233.5,911.5C 1227.83,912.39 1222.5,914.057 1217.5,916.5C 1215.56,917.15 1213.56,917.483 1211.5,917.5C 1130.5,917.5 1049.5,917.5 968.5,917.5C 968.5,916.5 968.5,915.5 968.5,914.5C 981.371,873.055 994.537,831.722 1008,790.5C 1022.55,778.949 1037.38,767.782 1052.5,757C 1165.83,756.167 1279.17,756.333 1392.5,757.5C 1399.76,767.689 1406.76,778.022 1413.5,788.5 Z"/></g>
<g><path style="opacity:1" fill="#a4a6a5" d="M 1720.5,759.5 C 1715.13,759.172 1709.79,759.505 1704.5,760.5C 1704.14,761.522 1703.48,762.189 1702.5,762.5C 1702.54,761.417 1702.87,760.417 1703.5,759.5C 1709.32,758.184 1714.99,758.184 1720.5,759.5 Z"/></g>
<g><path style="opacity:1" fill="#f3f3f3" d="M 1720.5,759.5 C 1719.01,766.473 1717.01,773.306 1714.5,780C 1708.42,780.625 1702.42,780.125 1696.5,778.5C 1698.98,773.351 1700.98,768.018 1702.5,762.5C 1703.48,762.189 1704.14,761.522 1704.5,760.5C 1709.79,759.505 1715.13,759.172 1720.5,759.5 Z"/></g>
<g><path style="opacity:1" fill="#8d8d8d" d="M 326.5,763.5 C 325.991,768.703 324.324,773.37 321.5,777.5C 322.796,772.607 324.462,767.94 326.5,763.5 Z"/></g>
<g><path style="opacity:1" fill="#8f8f8f" d="M 934.5,766.5 C 933.943,771.165 932.61,775.498 930.5,779.5C 931.057,774.835 932.39,770.502 934.5,766.5 Z"/></g>
<g><path style="opacity:1" fill="#a0a1a1" d="M 1684.5,777.5 C 1680.89,778.824 1676.89,779.491 1672.5,779.5C 1668.32,779.499 1664.32,779.166 1660.5,778.5C 1668.59,778.801 1676.59,778.467 1684.5,777.5 Z"/></g>
<g><path style="opacity:1" fill="#787979" d="M 1499.5,779.5 C 1499.5,780.5 1499.5,781.5 1499.5,782.5C 1502.39,782.194 1505.05,782.527 1507.5,783.5C 1504.5,783.5 1501.5,783.5 1498.5,783.5C 1498.23,781.901 1498.57,780.568 1499.5,779.5 Z"/></g>
<g><path style="opacity:1" fill="#373837" d="M 1506.5,788.5 C 1510.91,790.138 1515.58,791.138 1520.5,791.5C 1515.5,791.5 1510.5,791.5 1505.5,791.5C 1505.26,790.209 1505.6,789.209 1506.5,788.5 Z"/></g>
<g><path style="opacity:1" fill="#979797" d="M 1413.5,788.5 C 1414.75,791.293 1414.41,793.96 1412.5,796.5C 1412.83,793.833 1413.17,791.167 1413.5,788.5 Z"/></g>
<g><path style="opacity:1" fill="#e8e8e8" d="M 1527.5,792.5 C 1530.83,792.5 1534.17,792.5 1537.5,792.5C 1536.51,796.485 1535.51,800.485 1534.5,804.5C 1531.17,804.5 1527.83,804.5 1524.5,804.5C 1525.5,800.5 1526.5,796.5 1527.5,792.5 Z"/></g>
<g><path style="opacity:1" fill="#a9aaa9" d="M 1647.5,809.5 C 1654.53,809.17 1661.53,809.503 1668.5,810.5C 1668.38,811.107 1668.04,811.44 1667.5,811.5C 1660.83,810.833 1654.17,810.167 1647.5,809.5 Z"/></g>
<g><path style="opacity:1" fill="#bcbcbc" d="M 1489.5,809.5 C 1509.66,810.497 1529.99,810.83 1550.5,810.5C 1530,811.828 1509.33,811.828 1488.5,810.5C 1488.62,809.893 1488.96,809.56 1489.5,809.5 Z"/></g>
<g><path style="opacity:1" fill="#f8f8f8" d="M 1647.5,809.5 C 1654.17,810.167 1660.83,810.833 1667.5,811.5C 1664.11,820.017 1661.11,828.683 1658.5,837.5C 1647.5,837.5 1636.5,837.5 1625.5,837.5C 1625.5,836.5 1625.5,835.5 1625.5,834.5C 1628.72,826.181 1631.72,817.847 1634.5,809.5C 1638.83,809.5 1643.17,809.5 1647.5,809.5 Z"/></g>
<g><path style="opacity:1" fill="#8b8b8b" d="M 1404.5,820.5 C 1403.81,825.915 1402.14,830.915 1399.5,835.5C 1400.59,830.216 1402.26,825.216 1404.5,820.5 Z"/></g>
<g><path style="opacity:1" fill="#8e8e8e" d="M 912.5,834.5 C 912.277,838.162 911.277,841.495 909.5,844.5C 909.723,840.838 910.723,837.505 912.5,834.5 Z"/></g>
<g><path style="opacity:1" fill="#353535" d="M 1625.5,834.5 C 1625.5,835.5 1625.5,836.5 1625.5,837.5C 1636.5,837.5 1647.5,837.5 1658.5,837.5C 1647.35,838.495 1636.01,838.828 1624.5,838.5C 1624.23,836.901 1624.57,835.568 1625.5,834.5 Z"/></g>
<g><path style="opacity:1" fill="#e7e8e8" d="M 1518.5,842.5 C 1522.17,842.5 1525.83,842.5 1529.5,842.5C 1528.28,846.083 1527.11,849.749 1526,853.5C 1522.54,854.791 1519.04,854.791 1515.5,853.5C 1516.97,849.952 1517.97,846.285 1518.5,842.5 Z"/></g>
<g><path style="opacity:1" fill="#eeeeee" d="M 1552.5,848.5 C 1551.57,849.568 1551.23,850.901 1551.5,852.5C 1554.17,852.5 1556.83,852.5 1559.5,852.5C 1560.04,852.56 1560.38,852.893 1560.5,853.5C 1558.59,856.64 1557.26,859.973 1556.5,863.5C 1552.77,863.823 1549.11,863.489 1545.5,862.5C 1546.6,860.358 1547.6,858.192 1548.5,856C 1543.18,855.501 1537.84,855.334 1532.5,855.5C 1533.25,851.323 1534.59,847.323 1536.5,843.5C 1541.47,842.338 1546.47,842.171 1551.5,843C 1552.43,843.388 1553.09,844.055 1553.5,845C 1553.01,846.138 1552.68,847.305 1552.5,848.5 Z"/></g>
<g><path style="opacity:1" fill="#545454" d="M 1552.5,848.5 C 1552.5,849.5 1552.5,850.5 1552.5,851.5C 1555.06,851.198 1557.39,851.532 1559.5,852.5C 1556.83,852.5 1554.17,852.5 1551.5,852.5C 1551.23,850.901 1551.57,849.568 1552.5,848.5 Z"/></g>
<g><path style="opacity:1" fill="#a5a6a6" d="M 294.5,862.5 C 294.655,865.716 293.655,868.383 291.5,870.5C 292.129,867.603 293.129,864.936 294.5,862.5 Z"/></g>
<g><path style="opacity:1" fill="#919191" d="M 902.5,865.5 C 901.61,871.166 899.943,876.5 897.5,881.5C 898.39,875.834 900.057,870.5 902.5,865.5 Z"/></g>
<g><path style="opacity:1" fill="#d2d2d2" d="M 1530.5,871.5 C 1532.29,871.215 1533.95,871.548 1535.5,872.5C 1533.91,874.173 1533.25,876.173 1533.5,878.5C 1532.17,878.5 1530.83,878.5 1529.5,878.5C 1529.67,876.139 1530.01,873.806 1530.5,871.5 Z"/></g>
<g><path style="opacity:1" fill="#e2e2e2" d="M 1539.5,871.5 C 1542.5,871.5 1545.5,871.5 1548.5,871.5C 1548.41,873.677 1547.75,875.677 1546.5,877.5C 1543.57,878.484 1540.57,878.817 1537.5,878.5C 1537.88,876.079 1538.54,873.746 1539.5,871.5 Z"/></g>
<g><path style="opacity:1" fill="#b7b7b7" d="M 1335.5,879.5 C 1328.48,882.616 1321.15,884.95 1313.5,886.5C 1320.5,883.391 1327.83,881.057 1335.5,879.5 Z"/></g>
<g><path style="opacity:1" fill="#e8e8e8" d="M 1468.5,882.5 C 1472.5,882.5 1476.5,882.5 1480.5,882.5C 1479.49,885.049 1478.66,887.715 1478,890.5C 1473.88,891.798 1469.72,891.798 1465.5,890.5C 1466.51,887.812 1467.51,885.146 1468.5,882.5 Z"/></g>
<g><path style="opacity:1" fill="#e2e3e2" d="M 1486.5,882.5 C 1488.17,882.5 1489.83,882.5 1491.5,882.5C 1491.16,886.528 1489.33,889.528 1486,891.5C 1485.17,891.167 1484.33,890.833 1483.5,890.5C 1484.51,887.812 1485.51,885.146 1486.5,882.5 Z"/></g>
<g><path style="opacity:1" fill="#b0b0b0" d="M 1305.5,888.5 C 1297.89,892.146 1289.89,894.813 1281.5,896.5C 1289.22,893.261 1297.22,890.595 1305.5,888.5 Z"/></g>
<g><path style="opacity:1" fill="#969696" d="M 892.5,896.5 C 891.943,901.165 890.61,905.498 888.5,909.5C 889.057,904.835 890.39,900.502 892.5,896.5 Z"/></g>
<g><path style="opacity:1" fill="#b6b6b6" d="M 1268.5,900.5 C 1262.5,903.276 1256.17,905.276 1249.5,906.5C 1255.5,903.724 1261.83,901.724 1268.5,900.5 Z"/></g>
<g><path style="opacity:1" fill="#b9b9b9" d="M 1233.5,911.5 C 1228.5,913.943 1223.17,915.61 1217.5,916.5C 1222.5,914.057 1227.83,912.39 1233.5,911.5 Z"/></g>
<g><path style="opacity:1" fill="#757676" d="M 1478.5,913.5 C 1481.5,913.5 1484.5,913.5 1487.5,913.5C 1487.74,914.791 1487.4,915.791 1486.5,916.5C 1484.14,914.902 1481.48,913.902 1478.5,913.5 Z"/></g>
<g><path style="opacity:1" fill="#ececec" d="M 1496.5,914.5 C 1500.83,914.5 1505.17,914.5 1509.5,914.5C 1508.16,920.173 1506.83,925.839 1505.5,931.5C 1500.85,931.002 1496.18,930.669 1491.5,930.5C 1492.77,925.023 1494.44,919.69 1496.5,914.5 Z"/></g>
<g><path style="opacity:1" fill="#202221" d="M 360.5,911.5 C 360.643,913.262 360.309,914.929 359.5,916.5C 440.332,917.167 520.999,917.833 601.5,918.5C 520.16,919.164 439.16,918.497 358.5,916.5C 358.796,914.597 359.463,912.93 360.5,911.5 Z"/></g>
<g><path style="opacity:1" fill="#202221" d="M 968.5,914.5 C 968.5,915.5 968.5,916.5 968.5,917.5C 1049.5,917.5 1130.5,917.5 1211.5,917.5C 1130.34,918.499 1049,918.833 967.5,918.5C 967.232,916.901 967.566,915.568 968.5,914.5 Z"/></g>
<g><path style="opacity:1" fill="#c7c9c8" d="M 358.5,916.5 C 439.16,918.497 520.16,919.164 601.5,918.5C 601.737,919.791 601.404,920.791 600.5,921.5C 519.84,919.503 438.84,918.836 357.5,919.5C 357.263,918.209 357.596,917.209 358.5,916.5 Z"/></g>
<g><path style="opacity:1" fill="#3b3c3b" d="M 1442.5,922.5 C 1438.5,924.61 1434.16,925.943 1429.5,926.5C 1433.5,924.39 1437.84,923.057 1442.5,922.5 Z"/></g>
<g><path style="opacity:1" fill="#868787" d="M 1482.5,928.5 C 1478.89,929.824 1474.89,930.491 1470.5,930.5C 1466.32,930.499 1462.32,930.166 1458.5,929.5C 1466.59,929.801 1474.59,929.467 1482.5,928.5 Z"/></g>
<g><path style="opacity:1" fill="#8e8e8e" d="M 880.5,933.5 C 880.277,937.162 879.277,940.495 877.5,943.5C 877.723,939.838 878.723,936.505 880.5,933.5 Z"/></g>
<g><path style="opacity:1" fill="#9f9f9f" d="M 270.5,936.5 C 270.59,939.152 269.924,941.485 268.5,943.5C 268.41,940.848 269.076,938.515 270.5,936.5 Z"/></g>
<g><path style="opacity:1" fill="#525252" d="M 1432.5,941.5 C 1436.3,940.517 1440.3,940.183 1444.5,940.5C 1444.74,941.791 1444.4,942.791 1443.5,943.5C 1440.32,941.586 1436.65,940.92 1432.5,941.5 Z"/></g>
<g><path style="opacity:1" fill="#f2f3f2" d="M 1432.5,941.5 C 1436.65,940.92 1440.32,941.586 1443.5,943.5C 1443.3,945.685 1442.63,947.685 1441.5,949.5C 1437.35,950.08 1433.68,949.414 1430.5,947.5C 1430.97,945.421 1431.64,943.421 1432.5,941.5 Z"/></g>
<g><path style="opacity:1" fill="#e2e3e3" d="M 1450.5,941.5 C 1452.17,941.5 1453.83,941.5 1455.5,941.5C 1454.58,944.126 1453.58,946.793 1452.5,949.5C 1450.95,950.452 1449.29,950.785 1447.5,950.5C 1448.22,947.402 1449.22,944.402 1450.5,941.5 Z"/></g>
<g><path style="opacity:1" fill="#909291" d="M 1430.5,947.5 C 1433.68,949.414 1437.35,950.08 1441.5,949.5C 1437.7,950.483 1433.7,950.817 1429.5,950.5C 1429.26,949.209 1429.6,948.209 1430.5,947.5 Z"/></g>
<g><path style="opacity:1" fill="#f6f6f6" d="M 1430.5,970.5 C 1429.96,970.56 1429.62,970.893 1429.5,971.5C 1436.88,971.856 1443.88,972.856 1450.5,974.5C 1448.65,978.726 1446.98,983.06 1445.5,987.5C 1437.86,988.497 1430.2,988.831 1422.5,988.5C 1422.7,984.908 1423.7,981.574 1425.5,978.5C 1426.4,977.791 1426.74,976.791 1426.5,975.5C 1422.3,975.817 1418.3,975.483 1414.5,974.5C 1415.75,970.171 1417.41,966.004 1419.5,962C 1424.15,961.501 1428.82,961.334 1433.5,961.5C 1432.32,964.381 1431.32,967.381 1430.5,970.5 Z"/></g>
<g><path style="opacity:1" fill="#939393" d="M 870.5,964.5 C 869.943,969.165 868.61,973.498 866.5,977.5C 867.057,972.835 868.39,968.502 870.5,964.5 Z"/></g>
<g><path style="opacity:1" fill="#3a3b3a" d="M 1299.5,965.5 C 1294.5,967.943 1289.17,969.61 1283.5,970.5C 1288.5,968.057 1293.83,966.39 1299.5,965.5 Z"/></g>
<g><path style="opacity:1" fill="#373837" d="M 1430.5,970.5 C 1437.31,971.491 1444.31,971.825 1451.5,971.5C 1451.74,972.791 1451.4,973.791 1450.5,974.5C 1443.88,972.856 1436.88,971.856 1429.5,971.5C 1429.62,970.893 1429.96,970.56 1430.5,970.5 Z"/></g>
<g><path style="opacity:1" fill="#f2f2f2" d="M 1460.5,973.5 C 1464.88,973.174 1469.22,973.508 1473.5,974.5C 1471.83,979.167 1470.17,983.833 1468.5,988.5C 1464.21,989.274 1459.87,989.274 1455.5,988.5C 1456.57,983.285 1458.24,978.285 1460.5,973.5 Z"/></g>
<g><path style="opacity:1" fill="#8a8c8b" d="M 1414.5,974.5 C 1418.3,975.483 1422.3,975.817 1426.5,975.5C 1426.74,976.791 1426.4,977.791 1425.5,978.5C 1421.92,976.882 1417.92,975.882 1413.5,975.5C 1413.62,974.893 1413.96,974.56 1414.5,974.5 Z"/></g>
<g><path style="opacity:1" fill="#565756" d="M 583.5,974.5 C 583.59,977.152 582.924,979.485 581.5,981.5C 581.41,978.848 582.076,976.515 583.5,974.5 Z"/></g>
<g><path style="opacity:1" fill="#ececec" d="M 1546.5,978.5 C 1551.83,978.5 1557.17,978.5 1562.5,978.5C 1560.7,982.318 1559.36,986.318 1558.5,990.5C 1553.17,990.5 1547.83,990.5 1542.5,990.5C 1543.63,986.438 1544.97,982.438 1546.5,978.5 Z"/></g>
<g><path style="opacity:1" fill="#eeeeee" d="M 1570.5,979.5 C 1573.08,979.025 1575.08,979.692 1576.5,981.5C 1575.11,984.007 1574.11,986.673 1573.5,989.5C 1571.06,990.756 1568.73,990.756 1566.5,989.5C 1567.64,986.082 1568.97,982.749 1570.5,979.5 Z"/></g>
<g><path style="opacity:1" fill="#585a59" d="M 1570.5,979.5 C 1572.61,978.532 1574.94,978.198 1577.5,978.5C 1577.74,979.791 1577.4,980.791 1576.5,981.5C 1575.08,979.692 1573.08,979.025 1570.5,979.5 Z"/></g>
<g><path style="opacity:1" fill="#777777" d="M 1566.5,989.5 C 1568.73,990.756 1571.06,990.756 1573.5,989.5C 1572.67,990.748 1571.33,991.415 1569.5,991.5C 1568.17,991.167 1566.83,990.833 1565.5,990.5C 1565.62,989.893 1565.96,989.56 1566.5,989.5 Z"/></g>
<g><path style="opacity:1" fill="#a0a2a1" d="M 940.5,1000.5 C 994.331,999.501 1048.33,999.168 1102.5,999.5C 1102.78,1001.41 1102.45,1003.08 1101.5,1004.5C 1101.5,1003.17 1101.5,1001.83 1101.5,1000.5C 1047.83,1000.5 994.167,1000.5 940.5,1000.5 Z"/></g>
<g><path style="opacity:1" fill="#171918" d="M 576.5,997.5 C 576.5,998.833 576.5,1000.17 576.5,1001.5C 494.833,1001.5 413.167,1001.5 331.5,1001.5C 412.665,1000.5 493.998,1000.17 575.5,1000.5C 575.263,999.209 575.596,998.209 576.5,997.5 Z"/></g>
<g><path style="opacity:1" fill="#919191" d="M 859.5,998.5 C 858.943,1003.16 857.61,1007.5 855.5,1011.5C 856.057,1006.84 857.39,1002.5 859.5,998.5 Z"/></g>
<g><path style="opacity:1" fill="#f8f8f8" d="M 1543.5,1017.5 C 1542.6,1018.21 1542.26,1019.21 1542.5,1020.5C 1549.5,1020.5 1556.5,1020.5 1563.5,1020.5C 1566.25,1020.19 1568.91,1020.52 1571.5,1021.5C 1568.58,1027.6 1566.24,1033.94 1564.5,1040.5C 1555.92,1041.47 1547.25,1041.8 1538.5,1041.5C 1536.4,1041.8 1534.4,1041.47 1532.5,1040.5C 1534.37,1036.22 1536.04,1031.88 1537.5,1027.5C 1538.4,1026.79 1538.74,1025.79 1538.5,1024.5C 1532.73,1025.11 1527.4,1024.45 1522.5,1022.5C 1524.49,1017.19 1526.49,1011.85 1528.5,1006.5C 1534.94,1005.08 1541.27,1005.41 1547.5,1007.5C 1545.6,1010.63 1544.27,1013.96 1543.5,1017.5 Z"/></g>
<g><path style="opacity:1" fill="#373838" d="M 1425.5,1007.5 C 1425.04,1010.88 1424.37,1014.21 1423.5,1017.5C 1426.39,1017.19 1429.05,1017.53 1431.5,1018.5C 1428.5,1018.5 1425.5,1018.5 1422.5,1018.5C 1422.52,1014.47 1423.52,1010.8 1425.5,1007.5 Z"/></g>
<g><path style="opacity:1" fill="#b2b2b2" d="M 1441.5,1017.5 C 1438.74,1018.82 1435.58,1019.48 1432,1019.5C 1428.65,1019.5 1425.48,1019.16 1422.5,1018.5C 1425.5,1018.5 1428.5,1018.5 1431.5,1018.5C 1434.94,1018.75 1438.27,1018.41 1441.5,1017.5 Z"/></g>
<g><path style="opacity:1" fill="#7c7c7c" d="M 1543.5,1017.5 C 1549.94,1019.15 1556.6,1020.15 1563.5,1020.5C 1556.5,1020.5 1549.5,1020.5 1542.5,1020.5C 1542.26,1019.21 1542.6,1018.21 1543.5,1017.5 Z"/></g>
<g><path style="opacity:1" fill="#f8f8f8" d="M 1594.5,1042.5 C 1590.14,1042.41 1585.81,1042.08 1581.5,1041.5C 1580.17,1041.5 1578.83,1041.5 1577.5,1041.5C 1578.91,1034.61 1580.91,1027.94 1583.5,1021.5C 1589.17,1021.5 1594.83,1021.5 1600.5,1021.5C 1598.5,1028.49 1596.5,1035.49 1594.5,1042.5 Z"/></g>
<g><path style="opacity:1" fill="#aeaeae" d="M 1522.5,1022.5 C 1527.4,1024.45 1532.73,1025.11 1538.5,1024.5C 1538.74,1025.79 1538.4,1026.79 1537.5,1027.5C 1532.6,1025.55 1527.27,1024.89 1521.5,1025.5C 1521.26,1024.21 1521.6,1023.21 1522.5,1022.5 Z"/></g>
<g><path style="opacity:1" fill="#a4a4a4" d="M 1095.5,1022.5 C 1094.94,1027.16 1093.61,1031.5 1091.5,1035.5C 1092.06,1030.84 1093.39,1026.5 1095.5,1022.5 Z"/></g>
<g><path style="opacity:1" fill="#929392" d="M 849.5,1029.5 C 848.991,1034.7 847.324,1039.37 844.5,1043.5C 845.796,1038.61 847.462,1033.94 849.5,1029.5 Z"/></g>
<g><path style="opacity:1" fill="#262827" d="M 1503.5,1036.5 C 1503.5,1037.83 1503.5,1039.17 1503.5,1040.5C 1473.76,1040.18 1444.09,1040.51 1414.5,1041.5C 1443.48,1039.51 1472.81,1038.84 1502.5,1039.5C 1502.26,1038.21 1502.6,1037.21 1503.5,1036.5 Z"/></g>
<g><path style="opacity:1" fill="#484848" d="M 1564.5,1040.5 C 1560.55,1041.83 1556.22,1042.49 1551.5,1042.5C 1546.99,1042.5 1542.65,1042.17 1538.5,1041.5C 1547.25,1041.8 1555.92,1041.47 1564.5,1040.5 Z"/></g>
<g><path style="opacity:1" fill="#4c4c4c" d="M 1581.5,1041.5 C 1585.81,1042.08 1590.14,1042.41 1594.5,1042.5C 1593.04,1043.16 1591.37,1043.49 1589.5,1043.5C 1586.51,1043.62 1583.85,1042.95 1581.5,1041.5 Z"/></g>
<g><path style="opacity:1" fill="#535453" d="M 317.5,1043.5 C 316.943,1048.16 315.61,1052.5 313.5,1056.5C 314.057,1051.84 315.39,1047.5 317.5,1043.5 Z"/></g>
<g><path style="opacity:1" fill="#939393" d="M 838.5,1063.5 C 837.991,1068.7 836.324,1073.37 833.5,1077.5C 834.796,1072.61 836.462,1067.94 838.5,1063.5 Z"/></g>
<g><path style="opacity:1" fill="#505150" d="M 1515.5,1072.5 C 1526.32,1071.51 1537.32,1071.17 1548.5,1071.5C 1548.74,1072.79 1548.4,1073.79 1547.5,1074.5C 1537.22,1072.52 1526.55,1071.86 1515.5,1072.5 Z"/></g>
<g><path style="opacity:1" fill="#5a5a5a" d="M 1405.5,1069.5 C 1405.5,1070.5 1405.5,1071.5 1405.5,1072.5C 1432.5,1072.5 1459.5,1072.5 1486.5,1072.5C 1486.74,1073.79 1486.4,1074.79 1485.5,1075.5C 1458.85,1073.51 1431.85,1072.84 1404.5,1073.5C 1404.23,1071.9 1404.57,1070.57 1405.5,1069.5 Z"/></g>
<g><path style="opacity:1" fill="#f9f9f9" d="M 1515.5,1072.5 C 1526.55,1071.86 1537.22,1072.52 1547.5,1074.5C 1542.85,1086.43 1538.52,1098.43 1534.5,1110.5C 1523.15,1110.83 1511.81,1110.5 1500.5,1109.5C 1505.05,1096.91 1510.05,1084.58 1515.5,1072.5 Z"/></g>
<g><path style="opacity:1" fill="#515151" d="M 306.5,1077.5 C 305.943,1082.16 304.61,1086.5 302.5,1090.5C 303.057,1085.84 304.39,1081.5 306.5,1077.5 Z"/></g>
<g><path style="opacity:1" fill="#b7b9b8" d="M 1116.5,1080.5 C 1184.5,1080.5 1252.5,1080.5 1320.5,1080.5C 1320.74,1081.79 1320.4,1082.79 1319.5,1083.5C 1252.01,1081.83 1184.34,1080.83 1116.5,1080.5 Z"/></g>
<g><path style="opacity:1" fill="#9d9d9d" d="M 1319.5,1083.5 C 1319.32,1087.71 1317.99,1091.37 1315.5,1094.5C 1316.46,1090.61 1317.8,1086.94 1319.5,1083.5 Z"/></g>
<g><path style="opacity:1" fill="#9b9b9b" d="M 828.5,1094.5 C 827.991,1099.7 826.324,1104.37 823.5,1108.5C 824.796,1103.61 826.462,1098.94 828.5,1094.5 Z"/></g>
<g><path style="opacity:1" fill="#5b5c5c" d="M 904.5,1111.5 C 904.139,1115.92 902.806,1119.92 900.5,1123.5C 901.261,1119.22 902.595,1115.22 904.5,1111.5 Z"/></g>
<g><path style="opacity:1" fill="#4d4e4e" d="M 294.5,1114.5 C 294.59,1117.15 293.924,1119.49 292.5,1121.5C 292.41,1118.85 293.076,1116.51 294.5,1114.5 Z"/></g>
<g><path style="opacity:1" fill="#ededed" d="M 1410.5,1125.5 C 1415.5,1126.17 1420.5,1126.83 1425.5,1127.5C 1424.5,1130.82 1423.5,1134.15 1422.5,1137.5C 1416.54,1138.5 1410.54,1138.83 1404.5,1138.5C 1404.96,1135.12 1405.63,1131.79 1406.5,1128.5C 1403.83,1128.5 1401.17,1128.5 1398.5,1128.5C 1399.44,1124.59 1400.77,1120.75 1402.5,1117C 1405.87,1116.46 1409.2,1116.62 1412.5,1117.5C 1412.04,1120.22 1411.37,1122.89 1410.5,1125.5 Z"/></g>
<g><path style="opacity:1" fill="#b3b4b3" d="M 1410.5,1125.5 C 1415.87,1125.17 1421.21,1125.51 1426.5,1126.5C 1426.38,1127.11 1426.04,1127.44 1425.5,1127.5C 1420.5,1126.83 1415.5,1126.17 1410.5,1125.5 Z"/></g>
<g><path style="opacity:1" fill="#ebebeb" d="M 1433.5,1126.5 C 1436.83,1126.5 1440.17,1126.5 1443.5,1126.5C 1442.09,1130.39 1441.09,1134.39 1440.5,1138.5C 1436.83,1138.5 1433.17,1138.5 1429.5,1138.5C 1430.37,1134.31 1431.7,1130.31 1433.5,1126.5 Z"/></g>
<g><path style="opacity:1" fill="#a0a1a1" d="M 817.5,1128.5 C 817.655,1131.72 816.655,1134.38 814.5,1136.5C 815.129,1133.6 816.129,1130.94 817.5,1128.5 Z"/></g>
<g><path style="opacity:1" fill="#5e5f5e" d="M 1383.5,1137.5 C 1382.61,1143.17 1380.94,1148.5 1378.5,1153.5C 1379.39,1147.83 1381.06,1142.5 1383.5,1137.5 Z"/></g>
<g><path style="opacity:1" fill="#575958" d="M 894.5,1142.5 C 893.276,1149.17 891.276,1155.5 888.5,1161.5C 889.724,1154.83 891.724,1148.5 894.5,1142.5 Z"/></g>
<g><path style="opacity:1" fill="#afb0b0" d="M 1300.5,1142.5 C 1299.28,1149.15 1297.28,1155.48 1294.5,1161.5C 1295.72,1154.83 1297.72,1148.5 1300.5,1142.5 Z"/></g>
<g><path style="opacity:1" fill="#f0f0f0" d="M 1393.5,1155.5 C 1399.83,1155.5 1406.17,1155.5 1412.5,1155.5C 1411.83,1160.85 1410.16,1165.85 1407.5,1170.5C 1401.2,1171.5 1394.87,1171.83 1388.5,1171.5C 1389.77,1166.03 1391.43,1160.7 1393.5,1155.5 Z"/></g>
<g><path style="opacity:1" fill="#565656" d="M 274.5,1176.5 C 274.323,1180.71 272.99,1184.37 270.5,1187.5C 271.462,1183.61 272.796,1179.94 274.5,1176.5 Z"/></g>
<g><path style="opacity:1" fill="#a0a1a1" d="M 1276.5,1216.5 C 1276.32,1220.71 1274.99,1224.37 1272.5,1227.5C 1273.46,1223.61 1274.8,1219.94 1276.5,1216.5 Z"/></g>
<g><path style="opacity:1" fill="#101010" d="M -0.5,-0.5 C -0.166667,-0.5 0.166667,-0.5 0.5,-0.5C 0.5,-0.166667 0.5,0.166667 0.5,0.5C 0.5,639.833 0.5,1279.17 0.5,1918.5C 639.833,1918.5 1279.17,1918.5 1918.5,1918.5C 1918.83,1918.5 1919.17,1918.5 1919.5,1918.5C 1919.5,1918.83 1919.5,1919.17 1919.5,1919.5C 1279.5,1919.5 639.5,1919.5 -0.5,1919.5C -0.5,1279.5 -0.5,639.5 -0.5,-0.5 Z"/></g>
</svg>
